# xmcd
#
# Track frame offsets: 
#        150
#        12769
#        21571
#        34130
#        47665
#        54776
#        67559
#        79911
#        92383
#        105957
#        119606
#        128920
#        136237
#        143522
#        154259
#        164020
#        176624
#        190360
#        203749
#        216514
#        229265
#        242294
#        256075
#
# Disc length: 3599 seconds
#
# Revision: 0
# Processed by: cddbd v1.5.2PL0 Copyright (c) Steve Scherf et al.
# Submitted via: ExactAudioCopy v0.99pb5
#
DISCID=300e0d17
DTITLE=Johnny Paycheck - The Gospel Truth
DYEAR=2005
DGENRE=Country
TTITLE0=I'm On My Way Home
TTITLE1=I'm Better Off
TTITLE2=Black Sheep
TTITLE3=Every Minute I Want Jesus
TTITLE4=I'm Gonna Tell The World
TTITLE5=Her Crown She Has Won
TTITLE6=Almost Persuaded
TTITLE7=The Old Rugged Cross
TTITLE8=In The Garden
TTITLE9=Just A Closer Walk With Thee
TTITLE10=According To The Bible
TTITLE11=When The Roll Is Called Up Yonder
TTITLE12=Old Time Religion
TTITLE13=Amazing Grace
TTITLE14=Jesus Loves Me
TTITLE15=The Old Rugged Cross
TTITLE16=In The Garden
TTITLE17=The Day Is Almost Over
TTITLE18=I'm On My Way Back Home
TTITLE19=Black Sheep
TTITLE20=Her Crown She Has Won
TTITLE21=Every Minute I Want Jesus By My Side
TTITLE22=Just A Closer Walk With Thee
EXTD=
EXTT0=
EXTT1=
EXTT2=
EXTT3=
EXTT4=
EXTT5=
EXTT6=
EXTT7=
EXTT8=
EXTT9=
EXTT10=
EXTT11=
EXTT12=
EXTT13=
EXTT14=
EXTT15=
EXTT16=
EXTT17=
EXTT18=
EXTT19=
EXTT20=
EXTT21=
EXTT22=
PLAYORDER=
